<?xml version="1.0" ?><svg id="Layer_1" style="enable-background:new 0 0 512 512;" version="1.1" viewBox="0 0 512 512" xml:space="preserve" xmlns="http://www.w3.org/2000/svg" xmlns:xlink="http://www.w3.org/1999/xlink"><g><path d="M464.927,189.22c-5.741-6.382-13.954-10.028-22.528-10.028c-0.06,0-0.105,0-0.151,0   c-8.047,0.038-15.611,3.187-21.292,8.875c-5.545,5.53-11.543,9.395-17.841,11.497c-4.374,1.449-8.698,2.519-12.902,3.202   c-11.677-31.051-33.186-57.211-61.899-74.868c-1.687-1.038-3.394-2.029-5.11-2.996c1.109-6.308,3.424-11.684,6.918-16.006   c1.251-1.56,3.089-2.938,5.485-4.106c5.575-2.727,9.9-7.18,12.537-12.876c5.108-11.053,1.853-24.539-7.715-32.066   c-5.997-4.747-13.743-6.69-21.262-5.387c-7.489,1.326-14.089,5.794-18.082,12.266c-3.737,6.035-4.912,13.162-3.315,20.071   c1.462,6.359,1.537,12.288,0.241,17.63c-0.706,2.916-1.576,5.684-2.563,8.32c-25.88-8.334-53.625-9.464-80.744-3.008   c-0.199,0.047-0.391,0.103-0.589,0.151c-3.911-6.151-6.796-13.138-7.646-20.893c-0.339-3.112,0.136-6.517,1.454-10.405   c2.577-7.595,2.441-15.641-0.384-23.251c-5.477-14.76-20.81-24.095-36.443-22.204c-9.855,1.198-18.73,6.517-24.358,14.609   c-5.628,8.092-7.542,18.218-5.259,27.794c2.125,8.921,7.595,16.508,15.4,21.367c7.949,4.943,14.104,10.902,18.286,17.698   c1.741,2.839,3.243,5.578,4.556,8.218c-29.638,15.503-53.082,40.319-66.983,70.865c-2.627-2.155-5.137-4.632-7.416-7.507   c-0.414-0.527-0.776-1.085-1.537-2.208c-8.868-13.11-25.014-18.632-40.105-13.818c-15.596,5.003-26.596,22.889-24.027,39.058   c2.893,18.323,19.521,31.305,38.018,29.715c1.1-0.105,2.208-0.301,3.782-0.595c6.655-1.281,12.961-0.994,18.753,0.22   c-2.046,17.459-1.008,35.04,3.119,52.339c0.324,1.357,0.674,2.707,1.035,4.051c-5.823,2.666-13.527,4.861-22.131,3.875   c-0.008,0-1.944-0.347-1.951-0.347c-12.68-2.441-25.24,3.647-31.192,15.204c-6.118,11.904-2.132,28.615,8.702,36.481   c5.101,3.722,11.06,5.515,16.982,5.515c8.303,0,16.53-3.541,22.204-10.337c0.588-0.723,1.108-1.462,1.816-2.501   c4.45-6.56,10.866-11.355,19.1-14.297c9.542,17.323,22.456,32.695,38.076,45.114c-3.032,3.772-6.916,7.36-11.858,10.035   l-1.793,0.814c-11.814,5.289-18.565,17.495-16.802,30.363c1.831,13.26,14.677,24.652,28.073,24.893c0.158,0,0.309,0,0.467,0   c14.956,0,27.583-11.527,28.834-26.461c0.083-0.964,0.075-1.959,0.053-3.089c-0.104-6.595,1.678-12.435,4.264-17.417   c19.658,8.965,40.966,13.559,62.392,13.559c11.678,0,23.402-1.371,34.899-4.114c0.184-0.044,0.365-0.095,0.55-0.14   c3.912,6.151,6.798,13.137,7.648,20.89c0.331,3.074-0.151,6.57-1.462,10.412c-2.577,7.625-2.441,15.671,0.392,23.251   c5.003,13.486,18.233,22.452,32.413,22.452c1.341,0,2.682-0.09,4.023-0.241c9.855-1.19,18.73-6.51,24.351-14.602   c5.636-8.092,7.549-18.233,5.259-27.817c-2.125-8.936-7.595-16.515-15.37-21.352c-7.971-4.958-14.119-10.925-18.293-17.706   c-1.744-2.841-3.248-5.581-4.561-8.223c23.703-12.415,43.03-30.706,56.796-52.391c4.446,3.209,8.128,7,10.978,11.325l1.115,1.929   c5.56,10.006,16.214,16.018,27.365,16.018c2.29,0,4.596-0.256,6.886-0.784c14.104-3.195,25.18-18.097,24.155-32.548   c-1.16-16.319-14.797-29.067-31.071-29.067c-1.085-0.06-2.095,0.09-3.496,0.241c-6.512,0.667-12.945-0.27-19.309-2.796   c6.632-20.975,8.743-43.501,5.59-66.026c6.859-2.645,13.585-3.597,19.987-2.837c2.501,0.301,5.093,1.311,7.941,3.074   c4.852,3.021,10.307,4.573,15.958,4.573c1.311,0,2.637-0.083,3.963-0.249c13.712-1.74,24.743-12.967,26.234-26.687   C473.486,204.281,470.714,195.64,464.927,189.22z M309.796,84.026c-0.859-3.722-0.226-7.557,1.778-10.804   c2.155-3.488,5.711-5.892,9.749-6.608c4.084-0.708,8.167,0.324,11.482,2.931c5.123,4.038,6.871,11.271,4.129,17.186   c-1.432,3.097-3.767,5.515-6.736,6.969c-4.023,1.959-7.278,4.46-9.689,7.436c-4.1,5.089-7.009,11.109-8.691,17.958   c-1.585-0.724-3.183-1.41-4.786-2.077c1.153-3.084,2.161-6.305,2.974-9.673C311.77,100.135,311.694,92.284,309.796,84.026z    M88.407,336.147l-0.934,1.311c-5.538,6.645-15.385,7.836-22.43,2.727c-5.982-4.355-8.356-14.3-4.98-20.87   c3.398-6.615,10.593-10.096,18.436-8.619c0.776,0.166,1.545,0.301,2.298,0.392c10.593,1.249,20.012-1.173,27.271-4.279   c1.294,3.601,2.73,7.142,4.288,10.622C102.323,321.332,94.161,327.668,88.407,336.147z M314.693,377.719   c-5.577-16.827-2.748-27.323-2.591-27.86c0.995-3.27-0.844-6.721-4.099-7.715c-3.24-0.979-6.721,0.844-7.715,4.099   c-0.252,0.831-5.048,17.379,5.24,42.112c0.019,0.053,0.044,0.105,0.065,0.158c2.014,4.818,4.591,9.941,7.895,15.322   c5.169,8.438,12.673,15.747,22.286,21.744c5.003,3.104,8.529,7.986,9.9,13.728c1.462,6.178,0.226,12.703-3.39,17.901   c-3.677,5.274-9.252,8.619-15.702,9.388c-10.126,1.311-19.876-4.792-23.387-14.24c-1.838-4.912-1.929-10.096-0.271-14.993   c1.884-5.545,2.577-10.834,2.034-15.717c-4.355-39.661-48.935-60.922-50.826-61.812c-3.082-1.432-6.751-0.105-8.197,2.969   c-1.447,3.089-0.121,6.766,2.961,8.212c0.249,0.111,15.231,7.289,27.654,20.331c-27.615,5.508-56.339,2.404-82.104-8.834   c5.302-5.845,10.458-9.067,10.563-9.132c2.908-1.778,3.835-5.56,2.064-8.469c-1.756-2.893-5.515-3.858-8.454-2.095   c-1.168,0.708-28.495,17.555-28.02,47.783c0.015,0.558,0.038,1.13-0.008,1.688c-0.723,8.529-7.956,15.129-16.53,15.129   c-0.09,0-0.181,0-0.271-0.015c-7.391-0.121-15.038-6.901-16.041-14.225c-1.017-7.384,2.848-14.375,9.99-17.57   c0.753-0.332,1.492-0.663,2.245-1.07c22.663-12.266,27.802-37.852,28.013-38.937c0.64-3.345-1.545-6.555-4.89-7.203   c-3.285-0.784-6.57,1.522-7.233,4.867c-0.02,0.094-0.895,4.304-3.408,9.77c-23.444-19.059-40.075-45.434-47.132-75.002   c-3.585-15.041-4.634-30.303-3.141-45.474c13.535,6.198,22.185,15.903,22.324,16.06c1.228,1.394,2.931,2.102,4.649,2.102   c1.439,0,2.893-0.497,4.061-1.522c2.562-2.245,2.825-6.125,0.595-8.695c-0.773-0.883-13.851-15.609-34.224-22.181   c-0.472-0.214-0.977-0.373-1.511-0.464c-8.671-2.577-18.589-3.642-29.407-1.562c-0.708,0.128-1.424,0.271-2.125,0.339   c-11.995,1.077-22.821-7.421-24.713-19.356c-1.612-10.134,5.824-22.226,15.604-25.368c9.855-3.172,20.343,0.445,26.468,9.508   c0.55,0.814,1.108,1.635,1.725,2.419c20.019,25.27,52.703,26.069,54.081,26.091c4.061-0.038,6.201-2.66,6.261-6.058   c0.06-3.406-2.652-6.216-6.05-6.284c-0.195-0.005-13.24-0.387-26.697-7.125c12.514-28.461,33.968-51.653,61.234-66.198   c5.58,16.835,2.749,27.335,2.592,27.884c-0.995,3.262,0.844,6.706,4.106,7.708c0.603,0.181,1.206,0.264,1.801,0.264   c2.645,0,5.093-1.71,5.907-4.37c0.294-0.979,7.12-24.487-13.193-57.6c-5.199-8.453-12.695-15.762-22.286-21.729   c-5.025-3.119-8.544-8.001-9.908-13.743c-1.469-6.163-0.241-12.68,3.383-17.879c3.669-5.282,9.252-8.627,15.717-9.41   c9.991-1.198,19.868,4.784,23.379,14.247c1.831,4.927,1.921,10.111,0.264,15.001c-1.906,5.628-2.569,10.767-2.027,15.702   c4.34,39.683,48.935,60.938,50.826,61.819c3.074,1.454,6.758,0.113,8.197-2.976c1.447-3.082,0.121-6.758-2.969-8.205   c-0.244-0.115-15.218-7.287-27.639-20.323c24.97-5,50.362-3.043,73.885,5.511c0.22,0.093,0.442,0.173,0.667,0.238   c8.511,3.145,16.773,7.153,24.677,12.011c27.58,16.953,47.916,42.457,58.257,72.706c0.077,0.302,0.172,0.594,0.289,0.873   c1.31,3.914,2.461,7.903,3.431,11.966C398.36,284.928,369.424,348.474,314.693,377.719z M413.769,316.121   c0.633-0.06,1.251-0.09,1.884-0.121c9.84,0,18.067,7.7,18.76,17.585c0.603,8.408-6.344,17.781-14.571,19.649   c-8.273,1.838-16.606-1.808-20.961-9.644c-0.422-0.768-0.859-1.552-1.356-2.29c-3.895-5.92-8.965-11.016-15.08-15.242   c2.289-4.353,4.369-8.814,6.227-13.369C396.787,315.845,405.124,316.998,413.769,316.121z M460.271,211.605   c-0.889,8.107-7.414,14.745-15.506,15.769c-4.249,0.557-8.333-0.347-11.859-2.554c-4.43-2.742-8.68-4.325-12.989-4.845   c-7.804-0.961-15.733-0.019-23.724,2.755c-0.123-0.544-0.241-1.089-0.371-1.632c-0.519-2.178-1.091-4.335-1.701-6.475   c4.237-0.788,8.545-1.908,12.882-3.349c8.137-2.705,15.762-7.58,22.678-14.473c3.375-3.375,7.851-5.244,12.628-5.266   c0.03,0,0.06,0,0.09,0c5.078,0,9.945,2.17,13.351,5.952C459.231,201.351,460.844,206.361,460.271,211.605z"/><path d="M269.653,203.189c0-15.054-12.251-27.304-27.304-27.304s-27.304,12.251-27.304,27.304   c0,15.054,12.251,27.304,27.304,27.304S269.653,218.242,269.653,203.189z M242.349,218.152c-8.25,0-14.963-6.713-14.963-14.963   s6.713-14.963,14.963-14.963s14.963,6.713,14.963,14.963S250.599,218.152,242.349,218.152z"/><path d="M272.652,280.227c-12.432,0-22.543,10.111-22.543,22.543s10.111,22.543,22.543,22.543   c12.432,0,22.543-10.111,22.543-22.543S285.083,280.227,272.652,280.227z M272.652,312.956c-5.621,0-10.201-4.566-10.201-10.186   s4.581-10.186,10.201-10.186c5.621,0,10.186,4.566,10.186,10.186S278.272,312.956,272.652,312.956z"/><path d="M180.673,265.242c-9.96,0-18.06,8.099-18.06,18.06c0,9.96,8.099,18.067,18.06,18.067s18.067-8.107,18.067-18.067   C198.74,273.341,190.633,265.242,180.673,265.242z M180.673,289.012c-3.149,0-5.719-2.562-5.719-5.711s2.569-5.711,5.719-5.711   c3.157,0,5.726,2.562,5.726,5.711S183.829,289.012,180.673,289.012z"/><path d="M323.749,189.446c-19.228,0-34.884,15.641-34.884,34.876s15.656,34.876,34.884,34.876   c19.228,0,34.884-15.641,34.884-34.876S342.977,189.446,323.749,189.446z M323.749,246.858c-12.432,0-22.528-10.111-22.528-22.535   c0-12.424,10.096-22.535,22.528-22.535c12.432,0,22.528,10.111,22.528,22.535C346.277,236.747,336.181,246.858,323.749,246.858z"/></g></svg>